<?xml version="1.0" standalone="no"?><!DOCTYPE svg PUBLIC "-//W3C//DTD SVG 1.1//EN" "http://www.w3.org/Graphics/SVG/1.1/DTD/svg11.dtd"><svg t="1786009975093" class="icon" viewBox="0 0 1024 1024" version="1.1" xmlns="http://www.w3.org/2000/svg" p-id="8619" xmlns:xlink="http://www.w3.org/1999/xlink" width="200" height="200"><path d="M1023.497387 512c0-291.626667-244.821333-527.018667-539.648-511.232C224.47872 14.506667 14.601387 224.554667 0.777387 484.096-14.838613 778.922667 220.425387 1024 511.753387 1024h336.213333a175.232 175.232 0 0 0 175.274667-175.36V529.066667c0.128-5.632 0.256-11.349333 0.256-17.066667zM248.585387 796.416c-81.408-69.632-131.712-180.906667-129.365334-294.357333 0.128-7.936 0.512-15.872 1.28-23.850667v-0.512c11.861333-135.424 99.285333-261.76 221.738667-320.426667 122.624-58.624 275.669333-47.402667 388.522667 28.330667 112.682667 75.861333 180.949333 213.504 173.013333 349.184a477.866667 477.866667 0 0 1-14.08 87.978667c-3.413333 13.696-7.68 28.032-19.669333 36.650666a23.850667 23.850667 0 0 1-22.954667 3.242667c-12.629333-5.461333-14.165333-20.181333-15.104-32.853333-6.4-91.093333-30.592-184.96-92.245333-252.330667a282.794667 282.794667 0 0 0-181.077334-89.685333 292.053333 292.053333 0 0 0-195.157333 53.418666c-46.933333 33.664-83.626667 81.749333-101.504 136.490667-17.834667 54.741333-16 116.266667 7.424 169.088a223.872 223.872 0 0 0 81.066667 95.530667c62.506667 41.045333 148.096 46.933333 213.12 9.770666 65.024-37.12 103.850667-117.717333 87.296-190.72-17.322667-76.501333-97.578667-135.253333-175.488-120.832a14.933333 14.933333 0 0 1-17.194667-10.282666c-2.730667-10.538667 8.96-16.042667 18.645333-17.706667 75.52-13.568 156.458667 24.746667 197.888 89.386667 41.386667 64.682667 43.52 151.210667 9.642667 220.16-33.877333 68.992-100.992 119.296-175.616 137.514666-100.48 24.533333-191.530667-4.394667-260.309333-63.189333h0.128z" p-id="8620" fill="#0c0c0c"></path></svg>